<?xml version="1.0" encoding="UTF-8" standalone="no"?><!DOCTYPE svg PUBLIC "-//W3C//DTD SVG 1.1//EN" "http://www.w3.org/Graphics/SVG/1.1/DTD/svg11.dtd"><svg width="100%" height="100%" viewBox="0 0 50 50" version="1.1" xmlns="http://www.w3.org/2000/svg" xmlns:xlink="http://www.w3.org/1999/xlink" xml:space="preserve" xmlns:serif="http://www.serif.com/" style="fill-rule:evenodd;clip-rule:evenodd;stroke-linejoin:round;stroke-miterlimit:1.41421;"><rect x="0" y="0" width="50" height="50" style="fill-opacity:0;"/><path d="M25,6.657c-10.103,0 -18.324,8.219 -18.324,18.323c0,10.103 8.221,18.324 18.324,18.324c10.103,-0.001 18.324,-8.221 18.324,-18.325c0,-10.103 -8.221,-18.323 -18.324,-18.323Zm0,2.783c8.599,0 15.54,6.941 15.54,15.54c0,8.599 -6.941,15.542 -15.54,15.542c-8.599,0 -15.54,-6.942 -15.54,-15.542c0,-8.599 6.941,-15.54 15.54,-15.54Z" style="fill:#fff;fill-rule:nonzero;"/><path d="M32.528,16.212c-0.394,-0.394 -1.028,-0.394 -1.422,0l-5.259,5.259l-4.355,4.356l-5.26,5.259c-0.394,0.394 -0.394,1.028 0,1.422l1.24,1.239c0.394,0.394 1.028,0.394 1.422,0l5.259,-5.259l4.356,-4.355l5.259,-5.259c0.394,-0.394 0.394,-1.028 0,-1.422l-1.24,-1.24l0,0Z" style="fill:#fff;fill-rule:nonzero;"/><path d="M16.232,17.452c-0.394,0.394 -0.394,1.028 0,1.422l14.874,14.874c0.394,0.394 1.028,0.394 1.422,0l1.239,-1.24c0.394,-0.394 0.394,-1.028 0,-1.422l-5.259,-5.259l-4.355,-4.356l-5.259,-5.259c-0.394,-0.394 -1.028,-0.394 -1.422,0l-1.24,1.24l0,0Z" style="fill:#fff;fill-rule:nonzero;"/></svg>